<svg xmlns="http://www.w3.org/2000/svg" xmlns:xlink="http://www.w3.org/1999/xlink" width="0" height="0" style="position:absolute">
	
		<symbol id="icon-inst" viewBox="0 0 17 17">
			<path d="M11.54 2.052c.796.035 1.236.166 1.52.285.38.155.654.321.939.619.285.285.463.558.617.939.107.285.25.725.285 1.522.095 2.2.095 4.435 0 6.635-.035.797-.166 1.237-.285 1.522a2.64 2.64 0 0 1-.617.94 2.637 2.637 0 0 1-.939.618c-.285.107-.724.25-1.52.285-2.197.095-4.43.095-6.626 0-.796-.035-1.235-.166-1.52-.285a2.636 2.636 0 0 1-.939-.619 2.64 2.64 0 0 1-.617-.939c-.107-.285-.25-.725-.285-1.522a77.263 77.263 0 0 1 0-6.635c.047-.809.178-1.237.285-1.522.154-.393.332-.666.617-.951.285-.286.558-.464.939-.607.296-.119.724-.25 1.532-.285a68.184 68.184 0 0 1 6.614 0zM4.854.577c-.879.036-1.472.179-1.995.38a3.946 3.946 0 0 0-1.449.94A3.994 3.994 0 0 0 .472 3.36C.258 3.87.128 4.478.08 5.346a71.423 71.423 0 0 0 0 6.765c.036.868.178 1.475.38 1.998.214.535.487.999.95 1.45.452.453.915.738 1.45.952.522.202 1.115.345 1.994.38a80.06 80.06 0 0 0 6.758 0c.867-.035 1.472-.178 1.995-.38a3.98 3.98 0 0 0 1.449-.951c.45-.452.736-.916.95-1.45.202-.524.344-1.119.38-1.998a71.412 71.412 0 0 0 0-6.766c-.036-.868-.178-1.475-.38-1.986a3.987 3.987 0 0 0-.95-1.45 4.14 4.14 0 0 0-1.45-.952c-.522-.202-1.116-.345-1.994-.38a71.152 71.152 0 0 0-6.758 0zM8.24 4.513a4.207 4.207 0 0 0-4.204 4.21c0 2.33 1.888 4.209 4.204 4.209a4.207 4.207 0 0 0 4.204-4.21 4.214 4.214 0 0 0-4.204-4.209zm0 6.956a2.734 2.734 0 0 1-2.732-2.735A2.734 2.734 0 0 1 8.24 6a2.734 2.734 0 0 1 2.731 2.734A2.734 2.734 0 0 1 8.24 11.47zm5.356-7.122c0 .547-.44.987-.986.987a.984.984 0 0 1-.986-.987c0-.547.44-.987.986-.987s.986.44.986.987z"></path>
		</symbol>
	
		<symbol id="icon-logo" viewBox="0 0 50 23">
			<path d="M5.916 13.929c.157 0 .283.123.283.277 0 .153-.126.246-.283.246h-2.55c-1.698 0-2.768.83-2.768 2.86v2.367c0 1.599.975 2.767 2.769 2.767h2.517c.158 0 .315.093.315.246a.279.279 0 0 1-.283.277h-2.55C1.228 23 0 21.647 0 19.71v-2.367c0-2.46 1.29-3.413 3.398-3.413h2.518zm8.905.277c0-.154.157-.277.315-.277.157 0 .251.123.283.277v8.24h4.594c.157-.03.314.093.314.246v.031a.279.279 0 0 1-.283.277h-4.657a.572.572 0 0 1-.566-.492v-8.302zm13.782 0c.031-.154.157-.277.315-.277.157 0 .283.123.283.277v5.934c0 1.476 1.007 2.337 2.045 2.337h1.825c1.196 0 1.92-.953 1.92-2.337v-5.904c0-.153.126-.276.283-.307h.031c.158 0 .284.123.315.277v5.934c0 1.722-.944 2.89-2.517 2.89h-1.825c-1.385 0-2.612-1.014-2.612-2.89l-.063-5.934zm18.377-.277c1.415 0 2.611.953 2.611 2.337 0 .984-.598 1.599-1.447 1.999 1.07.338 1.856 1.107 1.856 2.275 0 1.476-1.258 2.49-2.769 2.49h-3.587a.572.572 0 0 1-.566-.491v-8.087c0-.277.22-.523.535-.523h3.367zm0 4.09c1.1 0 2.045-.677 2.045-1.753 0-1.076-.944-1.784-2.045-1.784h-3.304v3.567h3.303v-.03zm-3.304.522v3.905H47.2c1.195 0 2.202-.768 2.202-1.937 0-1.168-1.007-1.968-2.202-1.968h-3.525zM9.533 0h3.304c.755 0 1.479.03 2.203.154a6.255 6.255 0 0 1 1.636.492c.944.461 1.636 1.383 1.762 2.398.063.338.095.707.095 1.076v5.228c0 .092.031.184.094.246.503.492 1.007.953 1.479 1.445a.706.706 0 0 1 .094.984c-.063.092-.157.184-.252.277-.314.276-.818.276-1.1-.031l-.032-.031c-.567-.584-1.196-1.2-1.794-1.784a.289.289 0 0 0-.22-.092h-6.608c-.85 0-1.7-.092-2.549-.307a4.217 4.217 0 0 1-1.73-.892 3.197 3.197 0 0 1-1.039-2.09 9.082 9.082 0 0 1-.063-.923V.86a.77.77 0 0 1 .787-.83C5.664 0 5.758 0 5.853 0h3.681zm7.174 8.886v-.153V4.15c0-.277-.031-.553-.094-.83-.094-.8-.692-1.415-1.479-1.63a5.595 5.595 0 0 0-1.416-.184H6.797c-.126 0-.158.03-.158.153v4.52c0 .277.032.554.063.83.157.892.692 1.507 1.573 1.692.41.092.819.154 1.228.154 2.328.03 4.688 0 7.017 0l.188.03zm26.778-3.044H40.53c-.535 0-1.07-.061-1.574-.246-.692-.215-1.227-.769-1.353-1.476a6.64 6.64 0 0 1-.063-2.09c.095-.739.535-1.2 1.196-1.477a4.907 4.907 0 0 1 1.636-.4C41.284.062 42.165 0 43.077.032h2.486c.787 0 1.605.092 2.36.307.44.123.818.338 1.133.646.283.277.44.646.44 1.045.032.37-.22.708-.597.738-.252.062-.535.031-.787-.123a.678.678 0 0 1-.283-.307c-.19-.523-.598-.707-1.133-.769-.41-.061-.818-.061-1.259-.092h-3.555c-.567 0-1.133.03-1.7.123-.629.123-.85.369-.912.984-.032.307-.032.615.031.922a.827.827 0 0 0 .63.738c.377.123.786.154 1.164.154h5.16c.63 0 1.29.062 1.92.215 1.038.277 1.573.953 1.73 1.999a4.215 4.215 0 0 1-.031 1.66c-.189.83-.85 1.507-1.7 1.753a5.933 5.933 0 0 1-1.793.308h-5.129a9.917 9.917 0 0 1-2.14-.247 2.795 2.795 0 0 1-1.1-.522 1.57 1.57 0 0 1-.63-1.169c-.063-.492.346-.86.912-.8a.85.85 0 0 1 .819.554.941.941 0 0 0 .692.585c.409.123.818.153 1.227.153h4.5c.598.031 1.195-.03 1.793-.184.567-.154.818-.43.85-1.015.031-.307 0-.615-.032-.922a.797.797 0 0 0-.566-.677c-.44-.184-.913-.246-1.384-.246h-2.707zm-15.481 4.49c-.692 0-1.416.03-2.108 0a7.315 7.315 0 0 1-2.423-.431c-1.227-.4-2.108-1.476-2.234-2.737a9.684 9.684 0 0 1-.063-.953V4.09c0-.553.063-1.107.252-1.66A3.195 3.195 0 0 1 23.441.492c.661-.246 1.353-.4 2.077-.4 1.385-.03 2.77-.061 4.185-.03.881 0 1.762.092 2.612.368a3.517 3.517 0 0 1 2.014 1.445c.346.523.503 1.138.535 1.753.031.984.031 1.999.031 2.983 0 .615-.157 1.26-.44 1.814a3.292 3.292 0 0 1-1.983 1.599 7.733 7.733 0 0 1-2.045.369c-.787.03-1.573.03-2.392.061v-.123h-.031zm0-8.856c-.63 0-1.259-.031-1.888 0-.44 0-.881.061-1.322.123-.566.092-1.1.4-1.447.86-.283.431-.44.923-.41 1.446-.03.769 0 1.507 0 2.275 0 .246.032.523.064.769.094.861.755 1.568 1.636 1.753a7.14 7.14 0 0 0 1.605.184c1.164 0 2.36.03 3.524 0 .472 0 .913-.061 1.385-.123a2.032 2.032 0 0 0 1.29-.676c.377-.43.598-.984.566-1.568.032-.83.032-1.63 0-2.46 0-.277-.031-.554-.094-.83a1.974 1.974 0 0 0-1.416-1.569 4.585 4.585 0 0 0-1.448-.215c-.63 0-1.353.03-2.045.03zM1.92 5.196V9.44a.963.963 0 0 1-.095.43.844.844 0 0 1-1.007.461.795.795 0 0 1-.692-.768V7.656.861c0-.892.881-1.015 1.353-.769.283.154.44.461.41.769v3.167l.03 1.168z"></path>
		</symbol>
	
		<symbol id="icon-vk" viewBox="0 0 17 17">
			<path d="M10.759.497H5.707C1.097.497 0 1.593 0 6.204v5.052c0 4.61 1.096 5.707 5.707 5.707h5.052c4.61 0 5.707-1.096 5.707-5.707V6.204c-.012-4.61-1.108-5.707-5.707-5.707zm2.526 11.748H12.08c-.452 0-.595-.37-1.406-1.18-.714-.69-1.012-.774-1.191-.774-.238 0-.31.071-.31.417v1.072c0 .298-.095.465-.858.465-1.275 0-2.669-.775-3.657-2.192-1.49-2.097-1.895-3.67-1.895-3.992 0-.179.072-.333.417-.333h1.204c.31 0 .417.13.536.464.584 1.704 1.572 3.205 1.978 3.205.154 0 .226-.071.226-.453V7.17c-.048-.81-.477-.881-.477-1.167 0-.131.12-.274.31-.274h1.883c.25 0 .345.13.345.44v2.383c0 .25.107.346.19.346.156 0 .275-.084.56-.37.87-.965 1.478-2.454 1.478-2.454.06-.19.203-.345.5-.345h1.204c.357 0 .44.19.357.44-.155.703-1.62 2.765-1.62 2.765-.131.202-.179.31 0 .536.131.178.548.536.822.87.512.583.906 1.072 1.013 1.405.107.322-.06.5-.405.5z"></path>
		</symbol>
	
</svg>
